<svg xmlns="http://www.w3.org/2000/svg" width="32" height="32" viewBox="0 0 32 32"><path d="M2505.272,27a.5.5,0,0,1-.483-.364l-.6-2.065-.088-.006a1.762,1.762,0,0,1-1.576-1.3,1.741,1.741,0,0,1,.131-1.252l.051-.1-.095-.062a1.755,1.755,0,0,1-.74-1.018,1.735,1.735,0,0,1,.13-1.251l.051-.1-.095-.062a1.76,1.76,0,0,1-.739-1.02,1.741,1.741,0,0,1,.131-1.251l.051-.1-.095-.062a1.762,1.762,0,0,1,.067-2.993l.065-.038,0-.075a4.8,4.8,0,0,1,.638-2.6,3.781,3.781,0,0,0,.38-2.882l-.271-1.009-.249-.93-.976-3.64a.5.5,0,0,1,.356-.617l2.433-.652a.512.512,0,0,1,.131-.017.5.5,0,0,1,.487.373c.284,1.063,1.22,4.556,1.495,5.579.014.057.032.113.047.162v0l.063.2.148-.154a1.762,1.762,0,0,1,2.744.249l1.12,1.7a2.006,2.006,0,0,0,1.279.864l3.332.682a.505.505,0,0,1,.4.493v7.793a.506.506,0,0,1-.208.408l-2.492,1.807.76,2.717a.5.5,0,0,1-.048.385.509.509,0,0,1-.307.237l-7.3,1.956A.5.5,0,0,1,2505.272,27Zm5.915-5.538-3.972,1.064-.007.089a1.765,1.765,0,0,1-1.3,1.566l-.721.193.436,1.507,6.332-1.7-.678-2.426,0-.014-.007-.012a.476.476,0,0,1-.05-.138l-.026-.132Zm-5.739.26a.753.753,0,0,0-.2.026l-1.2.321-.017,0a.756.756,0,1,0,.392,1.46l1.216-.326a.756.756,0,0,0-.2-1.486Zm3.771-7.558-3.961,1.062-.007.089a1.743,1.743,0,0,1-.186.658l-.051.1.094.062a1.758,1.758,0,0,1,.608,2.269l-.051.1.095.062a1.757,1.757,0,0,1,.74,1.02,1.738,1.738,0,0,1-.131,1.252l-.051.1.095.062a1.776,1.776,0,0,1,.49.478l.05.073,3.963-1.062-.033-.122-1.631-6.084Zm-4.422,5.124a.766.766,0,0,0-.2.026l-1.218.326a.756.756,0,1,0,.392,1.46l1.216-.326a.756.756,0,0,0-.194-1.486Zm2.6-11.13a.738.738,0,0,0-.195.026.751.751,0,0,0-.56.728V8.96l.031.036a3.772,3.772,0,0,0,.961.79,4.767,4.767,0,0,1,2.239,2.919c.765,2.856.852,3.18,1.107,4.129l.052.193.789,2.944a.126.126,0,0,0,.006.018l.185.663,1.982-1.437V12.091l-2.929-.6a3.006,3.006,0,0,1-1.917-1.3l-1.119-1.7A.755.755,0,0,0,2507.4,8.159Zm-3.25,8.7a.754.754,0,0,0-.2.026l-1.2.321-.017,0a.756.756,0,1,0,.391,1.461l1.217-.327a.756.756,0,0,0-.195-1.486Zm-.654-2.434a.744.744,0,0,0-.2.026h0l-.54.145-.077.021-.621.167h0a.755.755,0,0,0,.416,1.452l1.216-.327a.754.754,0,0,0,.535-.925A.758.758,0,0,0,2503.492,14.421Zm0-1.007a1.769,1.769,0,0,1,1.456.765l.05.073,3.963-1.063-.061-.225a3.768,3.768,0,0,0-1.77-2.306,4.838,4.838,0,0,1-2.239-2.918l-.712-2.659-1.461.391.713,2.66a4.768,4.768,0,0,1-.48,3.646,3.826,3.826,0,0,0-.5,1.68l-.01.174.6-.159A1.758,1.758,0,0,1,2503.491,13.414Zm.036-10.765-1.461.391.392,1.461,1.46-.392ZM2492.759,27a.5.5,0,0,1-.131-.018l-7.3-1.956a.5.5,0,0,1-.355-.619l.739-2.713-2.5-1.814a.508.508,0,0,1-.208-.408V11.679a.505.505,0,0,1,.4-.493l3.333-.682a2,2,0,0,0,1.277-.864l1.12-1.7a1.763,1.763,0,0,1,2.744-.249l.148.154.063-.2c.017-.055.033-.109.048-.163.14-.521,1.014-3.786,1.344-5.016l.151-.564a.5.5,0,0,1,.618-.356l2.433.651a.5.5,0,0,1,.305.235h0a.5.5,0,0,1,.051.382l-.014.053-.052.2-.187.7-1.241,4.63v0a3.775,3.775,0,0,0,.38,2.881,4.8,4.8,0,0,1,.638,2.6l0,.075.065.038a1.762,1.762,0,0,1,.067,2.993l-.095.062.051.1a1.736,1.736,0,0,1,.13,1.25,1.762,1.762,0,0,1-.74,1.02l-.095.062.051.1a1.735,1.735,0,0,1,.132,1.251,1.759,1.759,0,0,1-.741,1.019l-.095.062.051.1a1.761,1.761,0,0,1-1.439,2.555l-.088.007-.569,2.06A.5.5,0,0,1,2492.759,27Zm-5.942-5.537h0l-.028.129a.554.554,0,0,1-.032.1l0,.008-.677,2.481,6.329,1.7.416-1.5-.727-.2a1.764,1.764,0,0,1-1.3-1.565l-.007-.089-3.969-1.064Zm5.733.259a.756.756,0,0,0-.195,1.486l1.217.326a.756.756,0,1,0,.391-1.46l-1.217-.326A.772.772,0,0,0,2492.55,21.722Zm-3.77-7.558-.032.122-1.631,6.083-.033.122,3.962,1.062.05-.073a1.753,1.753,0,0,1,.49-.477l.095-.062-.051-.1a1.737,1.737,0,0,1-.131-1.25,1.761,1.761,0,0,1,.739-1.022l.095-.062-.051-.1a1.74,1.74,0,0,1-.13-1.249,1.759,1.759,0,0,1,.739-1.021l.094-.062-.051-.1a1.754,1.754,0,0,1-.186-.658l-.007-.089-3.962-1.062h0Zm4.424,5.124a.759.759,0,0,0-.731.561.75.75,0,0,0,.079.58.757.757,0,0,0,.456.346l1.216.325a.755.755,0,0,0,.927-.534.756.756,0,0,0-.534-.926l-1.218-.326A.761.761,0,0,0,2493.2,19.289Zm-2.6-11.13a.755.755,0,0,0-.631.339l-1.12,1.7a3,3,0,0,1-1.917,1.3l-2.929.6v7.124l1.986,1.441.048-.177.037-.137.031-.117.05-.187h0l.1-.377.047-.178,1.817-6.778a4.769,4.769,0,0,1,2.239-2.918,3.773,3.773,0,0,0,.962-.791l.031-.036V8.913a.757.757,0,0,0-.755-.754Zm3.251,8.7a.756.756,0,0,0-.2,1.486l1.217.327a.755.755,0,0,0,.926-.536.744.744,0,0,0-.079-.58.757.757,0,0,0-.456-.346l-1.217-.326A.76.76,0,0,0,2493.855,16.855Zm.65-2.433a.756.756,0,0,0-.193,1.486l1.216.326a.756.756,0,0,0,.417-1.452l-.009,0h0l-1.229-.33A.739.739,0,0,0,2494.505,14.422Zm-.684-9.339-.712,2.659a4.777,4.777,0,0,1-.855,1.712l-.01.014,0,0,0,0-.008.011h0a4.763,4.763,0,0,1-1.361,1.172,3.738,3.738,0,0,0-1.388,1.389,3.814,3.814,0,0,0-.4.98l-.007.027-.061.129L2493,14.253l.05-.074a1.758,1.758,0,0,1,1.911-.705l.6.159-.01-.174a3.822,3.822,0,0,0-.5-1.68,4.772,4.772,0,0,1-.48-3.646l.713-2.66-1.461-.391h0Zm.652-2.434-.391,1.461,1.46.391.392-1.461ZM2501.52-1.1a.5.5,0,0,1-.357-.148.5.5,0,0,1-.147-.356.5.5,0,0,1,.147-.356l1.26-1.26a.5.5,0,0,1,.356-.147.5.5,0,0,1,.356.147.5.5,0,0,1,.147.357.5.5,0,0,1-.147.357l-1.259,1.259A.5.5,0,0,1,2501.52-1.1Zm-5.04,0a.5.5,0,0,1-.356-.148l-1.26-1.259a.507.507,0,0,1,0-.714.5.5,0,0,1,.357-.148.5.5,0,0,1,.357.147l1.259,1.26a.5.5,0,0,1,.148.356.5.5,0,0,1-.148.356A.5.5,0,0,1,2496.48-1.1Zm2.52-.63a.5.5,0,0,1-.5-.5V-4.5a.5.5,0,0,1,.5-.5.5.5,0,0,1,.5.5v2.268A.5.5,0,0,1,2499-1.726Z" transform="translate(-2483 5)" fill="#515c6f"/></svg>