<svg width="0" height="0" class="hidden"> <symbol xmlns="http://www.w3.org/2000/svg" viewBox="0 0 32 32" id="drinker"> <path d="M291.912,139.9a.857.857,0,1,1-.856-.876A.866.866,0,0,1,291.912,139.9Zm0,0" transform="translate(-272.062 -130.173)" fill="#515c6f"></path> <path d="M200.841,139.9a.857.857,0,1,1-.856-.876A.866.866,0,0,1,200.841,139.9Zm0,0" transform="translate(-186.683 -130.173)" fill="#515c6f"></path> <path d="M221.225,187.277h-3.751a.722.722,0,0,0-.591.312.756.756,0,0,0-.095.672,2.691,2.691,0,0,0,5.123,0,.756.756,0,0,0-.095-.672A.722.722,0,0,0,221.225,187.277Zm-1.875,1.89a1.768,1.768,0,0,1-1.548-.93h3.1A1.768,1.768,0,0,1,219.35,189.167Zm0,0" transform="translate(-203.202 -175.339)" fill="#515c6f"></path> <path d="M31.177,28.916h-.621V27.388c0-.322-.014-.646-.041-.966A2.8,2.8,0,0,0,31.4,24.37a2.764,2.764,0,0,0-2.257-2.737v-.381a1.783,1.783,0,0,0,.057-2.4,1.72,1.72,0,0,0-.937-.551,1.715,1.715,0,0,0-1.51-.918,1.686,1.686,0,0,0-.361.039,1.7,1.7,0,0,0-2.3-.606,1.718,1.718,0,0,0-1.361-.71h-.016a1.667,1.667,0,0,0-.855.236q-.385-.086-.776-.143a5.3,5.3,0,0,0,1.458-2.95h.079a2.042,2.042,0,0,0,2.017-2.062v-.622a1.706,1.706,0,0,0-1.685-1.722H22.6V8.489c0-.082,0-.163-.006-.244v-4.9a2.871,2.871,0,0,0-.974-2.163,2.737,2.737,0,0,0-2.24-.65L12.923,1.566A3.846,3.846,0,0,0,9.706,5.41V8.184c-.006.1-.009.2-.009.3v.353H9.339a1.706,1.706,0,0,0-1.685,1.723v.622a2.042,2.042,0,0,0,2.017,2.062H9.75a5.3,5.3,0,0,0,1.419,2.91A10.885,10.885,0,0,0,4.6,19.438a11.368,11.368,0,0,0-3.2,7.95v1.528H.822A.833.833,0,0,0,0,29.757v1.9a.833.833,0,0,0,.823.841h26.4a.48.48,0,0,0,0-.96H.938V29.875H9.686a.48.48,0,0,0,0-.959H7.1L2.76,24.476a10.2,10.2,0,0,1,9.475-7.43,3.478,3.478,0,0,0,3.245,2.316h1.336a3.478,3.478,0,0,0,3.24-2.3,9.929,9.929,0,0,1,1.082.12A1.77,1.77,0,0,0,21,17.86a1.818,1.818,0,0,0,.02.268,1.717,1.717,0,0,0-.806.5,1.786,1.786,0,0,0,.009,2.408V25.3a4.593,4.593,0,0,0,1.742,3.613H11.708a.48.48,0,0,0,0,.959H31.062v1.664H29.205a.48.48,0,0,0,0,.96h1.972A.833.833,0,0,0,32,31.658v-1.9a.833.833,0,0,0-.823-.841Zm-25.4,0H2.348V27.388a10.523,10.523,0,0,1,.157-1.815Zm24.69-4.546a1.812,1.812,0,0,1-1.4,1.775q.041-.226.061-.459a1.4,1.4,0,0,0,.017-2.626v-.446a1.815,1.815,0,0,1,1.319,1.756ZM10.645,5.41a2.9,2.9,0,0,1,2.423-2.9l6.456-1.032a1.814,1.814,0,0,1,1.485.431,1.9,1.9,0,0,1,.646,1.434V5.47a5.065,5.065,0,0,0-4.157-2.2H14.8a5.064,5.064,0,0,0-4.154,2.194Zm8.592,11.129A2.538,2.538,0,0,1,16.816,18.4H15.48a2.539,2.539,0,0,1-2.421-1.863.477.477,0,0,0-.229-.29,4.291,4.291,0,0,1-2.189-3.529.484.484,0,0,0-.195-.365.464.464,0,0,0-.274-.09.456.456,0,0,0-.126.018A.173.173,0,0,1,10,12.29H9.671a1.092,1.092,0,0,1-1.078-1.1v-.622A.756.756,0,0,1,9.339,9.8h.827a.475.475,0,0,0,.469-.48V8.65a.5.5,0,0,0,.009-.1V8.217A4.209,4.209,0,0,1,14.8,4.231h2.7a4.21,4.21,0,0,1,4.157,4.03v.292a.485.485,0,0,0,.006.073v.694a.475.475,0,0,0,.469.48h.827a.756.756,0,0,1,.746.763v.622a1.092,1.092,0,0,1-1.078,1.1H22.3a.174.174,0,0,1-.047-.007.46.46,0,0,0-.4.072.483.483,0,0,0-.195.365,4.292,4.292,0,0,1-2.189,3.529.478.478,0,0,0-.229.29ZM20.9,19.28a.758.758,0,0,1,.648-.249.5.5,0,0,0,.477-.233.528.528,0,0,0,.015-.54.812.812,0,0,1-.1-.395.8.8,0,0,1,.234-.563.764.764,0,0,1,.546-.233h.007a.787.787,0,0,1,.741.574.513.513,0,0,0,.381.364.5.5,0,0,0,.493-.171.772.772,0,0,1,.594-.28.787.787,0,0,1,.747.567.515.515,0,0,0,.288.328.5.5,0,0,0,.431-.017.755.755,0,0,1,.356-.088.782.782,0,0,1,.737.536.507.507,0,0,0,.458.347h0a.767.767,0,0,1,.551.266.8.8,0,0,1,.2.592.789.789,0,0,1-.724.734.759.759,0,0,1-.515-.153.955.955,0,0,0-.576-.191.991.991,0,0,0-.4.083.766.766,0,0,1-.66-.024.941.941,0,0,0-.875,0,.766.766,0,0,1-.716,0,.94.94,0,0,0-.89,0,.765.765,0,0,1-.7.012.949.949,0,0,0-.844,0,.758.758,0,0,1-.379.077.8.8,0,0,1-.528-1.34Zm.262,6.024V21.552a1.68,1.68,0,0,0,.217.026,1.7,1.7,0,0,0,.835-.171.034.034,0,0,1,.031,0,1.672,1.672,0,0,0,.743.173,1.691,1.691,0,0,0,.8-.2.022.022,0,0,1,.02,0,1.685,1.685,0,0,0,1.58.006.022.022,0,0,1,.018,0,1.692,1.692,0,0,0,.784.193,1.673,1.673,0,0,0,.673-.141.053.053,0,0,1,.047,0,1.7,1.7,0,0,0,1.02.341c.037,0,.075,0,.113,0a1.693,1.693,0,0,0,.172-.021V25.3a3.524,3.524,0,1,1-7.046,0Zm7.6,1.842a2.653,2.653,0,0,0,.845-.163c.005.135.008.271.008.406v1.528H27.4a4.571,4.571,0,0,0,1.36-1.771Zm0,0" transform="translate(0 -0.499)" fill="#515c6f"></path> <path d="M387.918,345.171a.475.475,0,0,0,.469-.48v-3.7a.469.469,0,1,0-.938,0v3.7A.475.475,0,0,0,387.918,345.171Zm0,0" transform="translate(-363.234 -318.779)" fill="#515c6f"></path> <path d="M425.238,345.171a.474.474,0,0,0,.469-.48v-3.7a.469.469,0,1,0-.938,0v3.7A.474.474,0,0,0,425.238,345.171Zm0,0" transform="translate(-398.221 -318.779)" fill="#515c6f"></path> <path d="M351.418,344.691v-3.7a.469.469,0,1,0-.938,0v3.7a.469.469,0,1,0,.938,0Zm0,0" transform="translate(-328.575 -318.779)" fill="#515c6f"></path> </symbol> <symbol xmlns="http://www.w3.org/2000/svg" viewBox="0 0 32 32" id="locations"> <path d="M31.97,31.366,27.282,19.018a.469.469,0,0,0-.208-.242l-4.993-2.813,1.458-2.311a8.907,8.907,0,1,0-15.077,0L9.92,15.963,4.927,18.776a.469.469,0,0,0-.208.242L.031,31.366a.469.469,0,0,0,.668.575L8.235,27.7l7.535,4.245a.469.469,0,0,0,.46,0L23.766,27.7,31.3,31.941a.469.469,0,0,0,.668-.575Zm-15.5-7.07a1.4,1.4,0,0,0,.72-.576L21.2,17.355l2.032,9.563L16.469,30.73ZM9.255,13.151a7.968,7.968,0,1,1,13.491,0c-.063.1-6.239,9.894-6.347,10.063l0,0a.468.468,0,0,1-.793,0c-.063-.1-6.251-9.913-6.346-10.064l0,0ZM5.535,19.509,9.9,17.047l-.761,3.581a.469.469,0,1,0,.917.195l.737-3.469,4.014,6.366a1.408,1.408,0,0,0,.72.575V30.73L8.765,26.918l.905-4.26a.469.469,0,0,0-.917-.195l-.933,4.39L1.367,30.488ZM24.18,26.853,22.1,17.047l4.37,2.462,4.168,10.979Z" transform="translate(0 -0.001)" fill="#515c6f"></path> <path d="M-101.846-518.2a1,1,0,0,1-1-1v-4.085h-.058a.761.761,0,0,1-.76-.76V-527.1a1.7,1.7,0,0,1,.609-1.316l.04-.032a1.81,1.81,0,0,1,1.129-.391,1.881,1.881,0,0,1,.4.044,1.916,1.916,0,0,1,.53-.688,1.9,1.9,0,0,1,1.193-.423,1.9,1.9,0,0,1,1.385.6,1.035,1.035,0,0,1,.481-.117,1.037,1.037,0,0,1,.512.135,1.033,1.033,0,0,1,.358.341,1.337,1.337,0,0,1,.367-.051,1.374,1.374,0,0,1,.4.061,1.273,1.273,0,0,1,.857.874,1.322,1.322,0,0,1-.211,1.167,1.328,1.328,0,0,1-.421.364v.731h.864a1.374,1.374,0,0,1,1.373,1.373v2.8a1.374,1.374,0,0,1-1.373,1.373h-.864v1.059a.982.982,0,0,1-.287.7.989.989,0,0,1-.708.3Zm-.288-5.729v0a.038.038,0,0,0,0,.009v4.717a.291.291,0,0,0,.291.291h4.819a.291.291,0,0,0,.291-.291v-1.379c0-.011,0-.022,0-.034s0-.023,0-.034v-4.768q0-.017,0-.034c0-.011,0-.023,0-.034v-.9c-.1-.005-.253-.017-.409-.031v1.524a.868.868,0,0,1-.81.87l-.052,0a.859.859,0,0,1-.592-.235.867.867,0,0,1-.272-.628v-1.794a.056.056,0,0,0-.033-.052.04.04,0,0,0-.046,0l-.007.006h0a.4.4,0,0,0-.114.168.7.7,0,0,1-.2.28.768.768,0,0,1-.473.138,1.773,1.773,0,0,1-.245-.013.465.465,0,0,0-.055,0,.409.409,0,0,0-.337.169,1.831,1.831,0,0,1-1.5.781,1.884,1.884,0,0,1-.252-.017Zm6.967,2.962a.665.665,0,0,0,.664-.664v-2.8a.665.665,0,0,0-.664-.664h-.864v4.127Zm-7.408-6.926-.011.009-.014.011a1,1,0,0,0-.353.773v3.057a.051.051,0,0,0,.051.051h.025a.05.05,0,0,0,.033-.011v-1.662a.355.355,0,0,1,.16-.3.351.351,0,0,1,.194-.058.358.358,0,0,1,.142.029,1.209,1.209,0,0,0,.465.094,1.126,1.126,0,0,0,.918-.478,1.118,1.118,0,0,1,.917-.471,1.127,1.127,0,0,1,.142.009.926.926,0,0,0,.143.007h.043a1.082,1.082,0,0,1,.29-.405h0l.012-.011.015-.013a.747.747,0,0,1,.475-.172.757.757,0,0,1,.325.074.757.757,0,0,1,.439.691v1.792a.154.154,0,0,0,.049.113.159.159,0,0,0,.116.043.162.162,0,0,0,.145-.163V-526.8a.355.355,0,0,1,.123-.268.353.353,0,0,1,.232-.087.347.347,0,0,1,.051,0c.143.022.685.068.793.068a.6.6,0,0,0,.482-.241.609.609,0,0,0,.095-.546.579.579,0,0,0-.38-.39.681.681,0,0,0-.2-.03.6.6,0,0,0-.353.115.353.353,0,0,1-.208.067.36.36,0,0,1-.144-.03.35.35,0,0,1-.208-.287.323.323,0,0,0-.322-.289.322.322,0,0,0-.259.129.354.354,0,0,1-.282.141h-.02a.354.354,0,0,1-.285-.174,1.191,1.191,0,0,0-1.019-.582,1.194,1.194,0,0,0-1.158.927.354.354,0,0,1-.189.241.357.357,0,0,1-.157.036.355.355,0,0,1-.15-.033,1.162,1.162,0,0,0-.475-.1A1.11,1.11,0,0,0-102.576-527.9Z" transform="translate(115.397 533.155)" fill="#515c6f"></path> </symbol> <symbol xmlns="http://www.w3.org/2000/svg" viewBox="0 0 27.563 32" id="beer"> <g transform="translate(15.031 28.206)"> <path d="M276.625,451.29a.625.625,0,1,0,.625.625A.625.625,0,0,0,276.625,451.29Z" transform="translate(-276 -451.29)" fill="#515c6f"></path> </g> <g transform="translate(6.25 12.518)"> <path d="M136.125,200.29a.625.625,0,0,0-.625.625v11.938a.625.625,0,0,0,1.25,0V200.915A.625.625,0,0,0,136.125,200.29Z" transform="translate(-135.5 -200.29)" fill="#515c6f"></path> </g> <g transform="translate(11.25 12.518)"> <g transform="translate(0)"> <path d="M216.125,200.29a.625.625,0,0,0-.625.625v11.938a.625.625,0,0,0,1.25,0V200.915A.625.625,0,0,0,216.125,200.29Z" transform="translate(-215.5 -200.29)" fill="#515c6f"></path> </g> </g> <path d="M59.938,10.063H56.813V8.171a3.114,3.114,0,0,0-1.191-5.536,3.16,3.16,0,0,0-1.793.129,3.13,3.13,0,0,0-2.64-1.452,3.084,3.084,0,0,0-1.178.232,5.593,5.593,0,0,0-8.542.992A5.638,5.638,0,0,0,35.5,8.143v7.5a1.893,1.893,0,0,0,1.906,1.875,1.873,1.873,0,0,0,.656-.118V28.875A3.129,3.129,0,0,0,41.188,32h12.5a3.129,3.129,0,0,0,3.125-3.125V27h3.125a3.129,3.129,0,0,0,3.125-3.125V13.188A3.129,3.129,0,0,0,59.938,10.063ZM55.563,28.25H53.656a.622.622,0,1,0,0,1.244h1.8a1.884,1.884,0,0,1-1.767,1.256h-12.5A1.878,1.878,0,0,1,39.42,29.5h9.237a.625.625,0,1,0,0-1.25H39.313V11.219a4.339,4.339,0,0,0,3.259-2.407.463.463,0,0,1,.332.13,3.749,3.749,0,0,0,5.324-.068.206.206,0,0,1,.148-.062c.973,0,1.61.208,1.892.618a2.1,2.1,0,0,1,.233,1.184v2.529a1.878,1.878,0,0,0,1.25,1.768v10.17a.625.625,0,0,0,1.25,0V14.911a1.878,1.878,0,0,0,1.25-1.767v-4.4a3.316,3.316,0,0,0,1.313,0ZM53.908,7.309A.625.625,0,0,0,53,7.866v5.277a.625.625,0,1,1-1.25,0V10.615A3.181,3.181,0,0,0,51.3,8.72a3.32,3.32,0,0,0-2.921-1.158,1.462,1.462,0,0,0-1.047.444,2.5,2.5,0,0,1-3.549.045,1.712,1.712,0,0,0-1.208-.488,1.256,1.256,0,0,0-1.122.7,3.1,3.1,0,0,1-2.768,1.756.625.625,0,0,0-.62.625v4.97a.675.675,0,0,1-.656.655.65.65,0,0,1-.656-.625v-7.5a4.385,4.385,0,0,1,4.4-4.366,4.458,4.458,0,0,1,.568.036.625.625,0,0,0,.625-.314,4.35,4.35,0,0,1,7.075-.772.625.625,0,0,0,.8.112,1.809,1.809,0,0,1,.97-.276,1.877,1.877,0,0,1,1.77,1.254.625.625,0,0,0,.938.312,1.875,1.875,0,0,1,2.867,1.116A1.921,1.921,0,0,1,53.908,7.309Zm2.9,6.5h2.5V23.25h-2.5Zm5,10.063a1.877,1.877,0,0,1-1.875,1.875H56.813V24.5h3.125a.625.625,0,0,0,.625-.625V13.188a.625.625,0,0,0-.625-.625H56.813v-1.25h3.125a1.877,1.877,0,0,1,1.875,1.875Z" transform="translate(-35.5)" fill="#515c6f"></path> </symbol> <symbol xmlns="http://www.w3.org/2000/svg" viewBox="0 0 32 32" id="home"> <g transform="translate(0)"> <path d="M111.717,858V840.362l-1.39,1.279a.795.795,0,0,1-1.115-.041.781.781,0,0,1,.041-1.109L125,826l5.186,4.772v-1.8h5.925v7.247l4.637,4.267a.78.78,0,0,1,.041,1.109.794.794,0,0,1-1.115.04l-1.389-1.279V858Zm16.034-14.488a1.836,1.836,0,0,1,1.842,1.827v11.094h7.113V838.908L125,828.137l-11.705,10.771v17.524h7.113V845.339a1.836,1.836,0,0,1,1.842-1.827Zm-5.764,1.827v11.094h6.027V845.339a.261.261,0,0,0-.263-.259h-5.5A.261.261,0,0,0,121.987,845.339Zm9.779-13.114,2.767,2.546v-4.227h-2.767Z" transform="translate(-109 -826)" fill="#515c6f"></path> </g> </symbol> <symbol xmlns="http://www.w3.org/2000/svg" viewBox="0 0 32 32" id="cheers"> <path d="M2505.272,27a.5.5,0,0,1-.483-.364l-.6-2.065-.088-.006a1.762,1.762,0,0,1-1.576-1.3,1.741,1.741,0,0,1,.131-1.252l.051-.1-.095-.062a1.755,1.755,0,0,1-.74-1.018,1.735,1.735,0,0,1,.13-1.251l.051-.1-.095-.062a1.76,1.76,0,0,1-.739-1.02,1.741,1.741,0,0,1,.131-1.251l.051-.1-.095-.062a1.762,1.762,0,0,1,.067-2.993l.065-.038,0-.075a4.8,4.8,0,0,1,.638-2.6,3.781,3.781,0,0,0,.38-2.882l-.271-1.009-.249-.93-.976-3.64a.5.5,0,0,1,.356-.617l2.433-.652a.512.512,0,0,1,.131-.017.5.5,0,0,1,.487.373c.284,1.063,1.22,4.556,1.495,5.579.014.057.032.113.047.162v0l.063.2.148-.154a1.762,1.762,0,0,1,2.744.249l1.12,1.7a2.006,2.006,0,0,0,1.279.864l3.332.682a.505.505,0,0,1,.4.493v7.793a.506.506,0,0,1-.208.408l-2.492,1.807.76,2.717a.5.5,0,0,1-.048.385.509.509,0,0,1-.307.237l-7.3,1.956A.5.5,0,0,1,2505.272,27Zm5.915-5.538-3.972,1.064-.007.089a1.765,1.765,0,0,1-1.3,1.566l-.721.193.436,1.507,6.332-1.7-.678-2.426,0-.014-.007-.012a.476.476,0,0,1-.05-.138l-.026-.132Zm-5.739.26a.753.753,0,0,0-.2.026l-1.2.321-.017,0a.756.756,0,1,0,.392,1.46l1.216-.326a.756.756,0,0,0-.2-1.486Zm3.771-7.558-3.961,1.062-.007.089a1.743,1.743,0,0,1-.186.658l-.051.1.094.062a1.758,1.758,0,0,1,.608,2.269l-.051.1.095.062a1.757,1.757,0,0,1,.74,1.02,1.738,1.738,0,0,1-.131,1.252l-.051.1.095.062a1.776,1.776,0,0,1,.49.478l.05.073,3.963-1.062-.033-.122-1.631-6.084Zm-4.422,5.124a.766.766,0,0,0-.2.026l-1.218.326a.756.756,0,1,0,.392,1.46l1.216-.326a.756.756,0,0,0-.194-1.486Zm2.6-11.13a.738.738,0,0,0-.195.026.751.751,0,0,0-.56.728V8.96l.031.036a3.772,3.772,0,0,0,.961.79,4.767,4.767,0,0,1,2.239,2.919c.765,2.856.852,3.18,1.107,4.129l.052.193.789,2.944a.126.126,0,0,0,.006.018l.185.663,1.982-1.437V12.091l-2.929-.6a3.006,3.006,0,0,1-1.917-1.3l-1.119-1.7A.755.755,0,0,0,2507.4,8.159Zm-3.25,8.7a.754.754,0,0,0-.2.026l-1.2.321-.017,0a.756.756,0,1,0,.391,1.461l1.217-.327a.756.756,0,0,0-.195-1.486Zm-.654-2.434a.744.744,0,0,0-.2.026h0l-.54.145-.077.021-.621.167h0a.755.755,0,0,0,.416,1.452l1.216-.327a.754.754,0,0,0,.535-.925A.758.758,0,0,0,2503.492,14.421Zm0-1.007a1.769,1.769,0,0,1,1.456.765l.05.073,3.963-1.063-.061-.225a3.768,3.768,0,0,0-1.77-2.306,4.838,4.838,0,0,1-2.239-2.918l-.712-2.659-1.461.391.713,2.66a4.768,4.768,0,0,1-.48,3.646,3.826,3.826,0,0,0-.5,1.68l-.01.174.6-.159A1.758,1.758,0,0,1,2503.491,13.414Zm.036-10.765-1.461.391.392,1.461,1.46-.392ZM2492.759,27a.5.5,0,0,1-.131-.018l-7.3-1.956a.5.5,0,0,1-.355-.619l.739-2.713-2.5-1.814a.508.508,0,0,1-.208-.408V11.679a.505.505,0,0,1,.4-.493l3.333-.682a2,2,0,0,0,1.277-.864l1.12-1.7a1.763,1.763,0,0,1,2.744-.249l.148.154.063-.2c.017-.055.033-.109.048-.163.14-.521,1.014-3.786,1.344-5.016l.151-.564a.5.5,0,0,1,.618-.356l2.433.651a.5.5,0,0,1,.305.235h0a.5.5,0,0,1,.051.382l-.014.053-.052.2-.187.7-1.241,4.63v0a3.775,3.775,0,0,0,.38,2.881,4.8,4.8,0,0,1,.638,2.6l0,.075.065.038a1.762,1.762,0,0,1,.067,2.993l-.095.062.051.1a1.736,1.736,0,0,1,.13,1.25,1.762,1.762,0,0,1-.74,1.02l-.095.062.051.1a1.735,1.735,0,0,1,.132,1.251,1.759,1.759,0,0,1-.741,1.019l-.095.062.051.1a1.761,1.761,0,0,1-1.439,2.555l-.088.007-.569,2.06A.5.5,0,0,1,2492.759,27Zm-5.942-5.537h0l-.028.129a.554.554,0,0,1-.032.1l0,.008-.677,2.481,6.329,1.7.416-1.5-.727-.2a1.764,1.764,0,0,1-1.3-1.565l-.007-.089-3.969-1.064Zm5.733.259a.756.756,0,0,0-.195,1.486l1.217.326a.756.756,0,1,0,.391-1.46l-1.217-.326A.772.772,0,0,0,2492.55,21.722Zm-3.77-7.558-.032.122-1.631,6.083-.033.122,3.962,1.062.05-.073a1.753,1.753,0,0,1,.49-.477l.095-.062-.051-.1a1.737,1.737,0,0,1-.131-1.25,1.761,1.761,0,0,1,.739-1.022l.095-.062-.051-.1a1.74,1.74,0,0,1-.13-1.249,1.759,1.759,0,0,1,.739-1.021l.094-.062-.051-.1a1.754,1.754,0,0,1-.186-.658l-.007-.089-3.962-1.062h0Zm4.424,5.124a.759.759,0,0,0-.731.561.75.75,0,0,0,.079.58.757.757,0,0,0,.456.346l1.216.325a.755.755,0,0,0,.927-.534.756.756,0,0,0-.534-.926l-1.218-.326A.761.761,0,0,0,2493.2,19.289Zm-2.6-11.13a.755.755,0,0,0-.631.339l-1.12,1.7a3,3,0,0,1-1.917,1.3l-2.929.6v7.124l1.986,1.441.048-.177.037-.137.031-.117.05-.187h0l.1-.377.047-.178,1.817-6.778a4.769,4.769,0,0,1,2.239-2.918,3.773,3.773,0,0,0,.962-.791l.031-.036V8.913a.757.757,0,0,0-.755-.754Zm3.251,8.7a.756.756,0,0,0-.2,1.486l1.217.327a.755.755,0,0,0,.926-.536.744.744,0,0,0-.079-.58.757.757,0,0,0-.456-.346l-1.217-.326A.76.76,0,0,0,2493.855,16.855Zm.65-2.433a.756.756,0,0,0-.193,1.486l1.216.326a.756.756,0,0,0,.417-1.452l-.009,0h0l-1.229-.33A.739.739,0,0,0,2494.505,14.422Zm-.684-9.339-.712,2.659a4.777,4.777,0,0,1-.855,1.712l-.01.014,0,0,0,0-.008.011h0a4.763,4.763,0,0,1-1.361,1.172,3.738,3.738,0,0,0-1.388,1.389,3.814,3.814,0,0,0-.4.98l-.007.027-.061.129L2493,14.253l.05-.074a1.758,1.758,0,0,1,1.911-.705l.6.159-.01-.174a3.822,3.822,0,0,0-.5-1.68,4.772,4.772,0,0,1-.48-3.646l.713-2.66-1.461-.391h0Zm.652-2.434-.391,1.461,1.46.391.392-1.461ZM2501.52-1.1a.5.5,0,0,1-.357-.148.5.5,0,0,1-.147-.356.5.5,0,0,1,.147-.356l1.26-1.26a.5.5,0,0,1,.356-.147.5.5,0,0,1,.356.147.5.5,0,0,1,.147.357.5.5,0,0,1-.147.357l-1.259,1.259A.5.5,0,0,1,2501.52-1.1Zm-5.04,0a.5.5,0,0,1-.356-.148l-1.26-1.259a.507.507,0,0,1,0-.714.5.5,0,0,1,.357-.148.5.5,0,0,1,.357.147l1.259,1.26a.5.5,0,0,1,.148.356.5.5,0,0,1-.148.356A.5.5,0,0,1,2496.48-1.1Zm2.52-.63a.5.5,0,0,1-.5-.5V-4.5a.5.5,0,0,1,.5-.5.5.5,0,0,1,.5.5v2.268A.5.5,0,0,1,2499-1.726Z" transform="translate(-2483 5)" fill="#515c6f"></path> </symbol> </svg>
